<?xml version="1.0" encoding="UTF-8" standalone="no"?>
<svg width="221px" height="66px" viewBox="0 0 221 66" version="1.1" xmlns="http://www.w3.org/2000/svg" xmlns:xlink="http://www.w3.org/1999/xlink" xmlns:sketch="http://www.bohemiancoding.com/sketch/ns">
    <!-- Generator: Sketch 3.3 (11970) - http://www.bohemiancoding.com/sketch -->
    <title>Powered by Gracenote_Color(RGB)-Reversed</title>
    <desc>Created with Sketch.</desc>
    <defs></defs>
    <g id="Page-1" stroke="none" stroke-width="1" fill="none" fill-rule="evenodd" sketch:type="MSPage">
        <g id="Powered-by-Gracenote_Color(RGB)-Reversed" sketch:type="MSLayerGroup">
            <path d="M33.047,63.562 C16.197,63.562 2.486,49.854 2.486,32.998 C2.486,16.146 16.197,2.437 33.047,2.437 C49.898,2.437 63.611,16.146 63.611,32.998 C63.611,49.854 49.898,63.562 33.047,63.562" id="Fill-1" fill="#FFFFFF" sketch:type="MSShapeGroup"></path>
            <path d="M59.88,32.998 C59.88,47.818 47.868,59.832 33.049,59.832 C18.229,59.832 6.218,47.818 6.218,32.998 C6.218,18.182 18.229,6.166 33.049,6.166 C47.868,6.166 59.88,18.182 59.88,32.998" id="Fill-2" fill="#C0323A" sketch:type="MSShapeGroup"></path>
            <path d="M43.481,48.088 C43.481,50.506 38.909,52.465 33.271,52.465 C27.633,52.465 23.065,50.506 23.065,48.088 C23.065,45.672 27.633,43.713 33.271,43.713 C38.909,43.713 43.481,45.672 43.481,48.088" id="Fill-3" fill="#FFFFFF" sketch:type="MSShapeGroup"></path>
            <path d="M44.939,29.863 C44.939,36.307 39.712,41.531 33.271,41.531 C26.83,41.531 21.607,36.307 21.607,29.863 C21.607,23.422 26.83,18.197 33.271,18.197 C39.712,18.197 44.939,23.422 44.939,29.863" id="Fill-4" fill="#FFFFFF" sketch:type="MSShapeGroup"></path>
            <path d="M47.858,18.918 C47.858,20.531 46.55,21.836 44.941,21.836 C43.331,21.836 42.023,20.531 42.023,18.918 C42.023,17.309 43.331,16.002 44.941,16.002 C46.55,16.002 47.858,17.309 47.858,18.918" id="Fill-5" fill="#FFFFFF" sketch:type="MSShapeGroup"></path>
            <path d="M66.05,32.998 C66.05,14.803 51.246,0 33.047,0 C14.851,0 0.048,14.803 0.048,32.998 C0.048,51.195 14.851,66 33.047,66 C51.246,66 66.05,51.195 66.05,32.998 L66.05,32.998 Z M33.047,62.172 C16.961,62.172 3.875,49.086 3.875,32.998 C3.875,16.912 16.961,3.828 33.047,3.828 C49.133,3.828 62.221,16.912 62.221,32.998 C62.221,49.086 49.133,62.172 33.047,62.172 L33.047,62.172 Z" id="Fill-6" fill="#BDBFBD" sketch:type="MSShapeGroup"></path>
            <path d="M204.785,37.787 L218.184,37.787 C218.184,31.393 213.943,29.377 210.266,29.377 C204.939,29.377 202.34,33.018 202.34,36.984 C202.34,41.182 205.006,44.533 210.154,44.533 C215.08,44.533 217.057,42.314 217.982,39.313 L215.59,39.313 C214.992,41.201 213.344,42.467 210.154,42.467 C206.824,42.467 204.896,40.361 204.785,37.787 L204.785,37.787 Z M210.287,31.465 C212.898,31.465 215.168,32.814 215.678,35.787 L204.828,35.787 C205.314,32.662 207.869,31.465 210.287,31.465 L210.287,31.465 Z" id="Fill-7" fill="#FFFFFF" sketch:type="MSShapeGroup"></path>
            <path d="M194.65,44.533 C199.109,44.533 200.777,42.467 201.527,39.313 L199.264,39.313 C198.775,41.381 197.492,42.467 194.65,42.467 C191.986,42.467 190.834,41.512 190.834,38.875 L190.834,31.656 L198.49,31.656 L198.49,29.684 L190.834,29.684 L190.834,26.068 L188.5,26.068 L188.5,39.229 C188.5,42.779 190.547,44.533 194.65,44.533" id="Fill-8" fill="#FFFFFF" sketch:type="MSShapeGroup"></path>
            <path d="M155.885,31.795 L155.885,29.689 L153.607,29.689 L153.607,44.244 L155.912,44.244 L155.912,36.232 C155.912,33.279 157.51,31.465 161.262,31.465 C163.791,31.465 165.697,32.176 165.697,35.01 L165.697,44.244 L168.006,44.244 L168.006,35.322 C168.006,31.176 165.475,29.377 161.568,29.377 C158.912,29.377 156.822,30.51 155.885,31.795" id="Fill-9" fill="#FFFFFF" sketch:type="MSShapeGroup"></path>
            <path d="M131.486,35.525 L133.861,35.525 C133.482,33.15 132.439,31.686 131.025,30.729 C129.604,29.799 127.869,29.377 125.963,29.377 C120.637,29.377 118.041,33.018 118.041,36.963 C118.041,40.603 120.26,44.533 125.963,44.533 C130.713,44.533 132.908,42.49 133.814,39.313 L131.42,39.313 C130.6,41.314 129.314,42.467 125.963,42.467 C122.01,42.467 120.459,39.807 120.459,36.787 C120.459,33.389 122.986,31.465 125.963,31.465 C128.955,31.465 130.842,32.613 131.486,35.525" id="Fill-10" fill="#FFFFFF" sketch:type="MSShapeGroup"></path>
            <path d="M96.461,31.727 L96.461,29.689 L94.133,29.689 L94.133,44.244 L96.461,44.244 L96.461,36.232 C96.461,33.26 97.815,31.506 101.498,31.506 L101.498,29.377 C98.768,29.377 97.238,30.482 96.461,31.727" id="Fill-11" fill="#FFFFFF" sketch:type="MSShapeGroup"></path>
            <path d="M178.307,31.465 C182.279,31.465 184.432,33.525 184.432,37.01 C184.432,39.85 182.457,42.467 178.307,42.467 C173.943,42.467 172.25,39.676 172.25,37.01 C172.25,33.525 174.736,31.465 178.332,31.465 L178.307,31.465 L178.307,31.465 Z M178.307,44.533 C184.299,44.533 186.721,40.69 186.721,37.01 C186.721,31.994 183.189,29.377 178.307,29.377 C173.143,29.377 169.896,32.594 169.896,37.01 C169.896,40.336 172.014,44.533 178.332,44.533 L178.307,44.533 L178.307,44.533 Z" id="Fill-12" fill="#FFFFFF" sketch:type="MSShapeGroup"></path>
            <path d="M143.744,31.465 C146.385,31.465 148.629,32.814 149.135,35.787 L138.287,35.787 C138.795,32.662 141.35,31.465 143.744,31.465 L143.744,31.465 Z M138.268,37.787 L151.67,37.787 C151.67,31.393 147.406,29.377 143.744,29.377 C138.416,29.377 135.799,33.018 135.799,36.984 C135.799,41.182 138.486,44.533 143.611,44.533 C148.533,44.533 150.533,42.314 151.469,39.313 L149.07,39.313 C148.469,41.201 146.809,42.467 143.611,42.467 C140.305,42.467 138.354,40.361 138.268,37.787 L138.268,37.787 Z" id="Fill-13" fill="#FFFFFF" sketch:type="MSShapeGroup"></path>
            <path d="M113.703,37.633 L113.703,38.182 C113.703,41.381 110.842,42.467 108.049,42.467 C105.898,42.467 104.256,41.912 104.256,39.982 C104.256,38.43 105.986,37.633 108.67,37.633 L113.703,37.633 L113.703,37.633 Z M113.732,42.225 L113.732,44.244 L116.057,44.244 L116.057,33.789 C116.057,30.975 114.086,29.377 109.334,29.377 C104.453,29.377 102.791,31.373 102.393,34.525 L104.723,34.525 C105.01,32.416 106.186,31.465 109.291,31.465 C112.576,31.465 113.703,32.281 113.703,34.061 L113.703,35.654 L109.092,35.654 C105.699,35.654 101.861,36.322 101.861,40.158 C101.861,43.443 105.029,44.533 107.451,44.533 C109.777,44.533 112.242,44.109 113.732,42.225 L113.732,42.225 Z" id="Fill-14" fill="#FFFFFF" sketch:type="MSShapeGroup"></path>
            <path d="M82.85,31.465 C86.553,31.465 89.043,33.525 89.043,36.924 C89.043,40.205 86.73,42.467 82.85,42.467 C79.232,42.467 76.971,40.182 76.971,36.924 C76.971,33.549 79.543,31.465 82.85,31.465 L82.85,31.465 Z M88.955,31.93 C87.484,30.107 85.178,29.377 82.918,29.377 C78.432,29.377 74.574,32.301 74.574,36.924 C74.574,42.002 78.523,44.533 82.85,44.533 C85.137,44.533 87.484,43.889 88.955,42.021 L88.955,42.977 C88.955,46.576 87.109,47.947 83.006,47.947 C80.672,47.947 78.213,47.486 77.699,44.955 L75.305,44.955 C76.018,49.232 79.695,50.037 83.137,50.037 C88.107,50.037 91.26,48.213 91.26,42.49 L91.26,29.689 L88.955,29.689 L88.955,31.93 L88.955,31.93 Z" id="Fill-15" fill="#FFFFFF" sketch:type="MSShapeGroup"></path>
            <path d="M218.609,42.984 C218.609,42.359 219.061,41.914 219.619,41.914 C220.174,41.914 220.639,42.359 220.639,42.984 C220.639,43.611 220.174,44.055 219.619,44.055 C219.061,44.055 218.609,43.611 218.609,42.984 L218.609,42.984 Z M218.291,42.984 C218.291,43.799 218.92,44.354 219.619,44.354 C220.326,44.354 220.951,43.799 220.951,42.984 C220.951,42.17 220.326,41.615 219.619,41.615 C218.92,41.615 218.291,42.17 218.291,42.984 L218.291,42.984 Z M219.104,43.748 L219.377,43.748 L219.377,43.107 L219.58,43.107 L219.955,43.748 L220.256,43.748 L219.855,43.1 C220.061,43.078 220.23,42.973 220.23,42.703 C220.23,42.393 220.029,42.268 219.666,42.268 L219.104,42.268 L219.104,43.748 L219.104,43.748 Z M219.377,42.479 L219.643,42.479 C219.783,42.479 219.951,42.508 219.951,42.678 C219.951,42.877 219.813,42.904 219.635,42.904 L219.377,42.904 L219.377,42.479 L219.377,42.479 Z" id="Fill-16" fill="#FFFFFF" sketch:type="MSShapeGroup"></path>
            <path d="M78.44,17.773 L80.191,17.773 L81.145,17.745 L82.055,17.493 L82.56,16.975 L82.686,16.597 L82.783,16.009 L82.644,15.35 L82.433,14.901 L82.055,14.51 L81.257,14.285 L80.023,14.216 L78.44,14.216 L78.44,17.773 L78.44,17.773 Z M78.44,22.914 L77.11,22.914 L77.11,13.024 L81.046,13.024 L82.139,13.179 L82.867,13.501 L83.54,14.089 L83.89,14.678 L84.058,15.196 L84.128,15.98 L84.016,16.905 L83.666,17.731 L83.05,18.418 L82.321,18.782 L81.523,18.936 L80.696,18.95 L78.44,18.95 L78.44,22.914 L78.44,22.914 Z" id="Fill-17" fill="#FFFFFF" sketch:type="MSShapeGroup"></path>
            <path d="M94.907,16.345 L94.501,15.392 L93.661,14.579 L92.568,14.159 L91.812,14.062 L91.042,14.173 L90.356,14.384 L89.725,14.846 L89.122,15.546 L88.674,16.583 L88.492,17.913 L88.66,19.342 L88.898,20.001 L89.234,20.603 L89.879,21.289 L90.817,21.766 L91.812,21.905 L92.54,21.821 L93.101,21.667 L93.843,21.233 L94.432,20.603 L94.964,19.286 L95.174,17.928 L94.907,16.345 L94.907,16.345 Z M96.532,18.67 L96.351,19.637 L95.902,20.743 L95.076,21.821 L94.375,22.396 L93.591,22.76 L92.498,23.04 L91.784,23.04 L90.523,22.928 L89.781,22.662 L88.885,22.13 L88.016,21.205 L87.315,19.86 L87.148,18.978 L87.105,17.97 L87.176,16.807 L87.441,15.882 L88.1,14.678 L88.59,14.131 L89.36,13.543 L90.439,13.095 L91.812,12.927 L93.114,13.066 L94.123,13.445 L94.894,13.921 L95.37,14.369 L95.804,14.93 L96.183,15.7 L96.463,16.709 L96.561,17.97 L96.532,18.67 L96.532,18.67 Z" id="Fill-18" fill="#FFFFFF" sketch:type="MSShapeGroup"></path>
            <path d="M109.469,22.914 L108.152,22.914 L105.911,14.943 L103.823,22.914 L102.521,22.914 L99.355,13.024 L100.728,13.024 L103.151,21.009 L105.295,13.024 L106.583,13.024 L108.811,20.995 L111.149,13.024 L112.467,13.024 L109.469,22.914" id="Fill-19" fill="#FFFFFF" sketch:type="MSShapeGroup"></path>
            <path d="M122.488,21.737 L122.488,22.914 L115.526,22.914 L115.526,13.024 L122.32,13.024 L122.32,14.258 L116.843,14.258 L116.843,17.269 L122.012,17.269 L122.012,18.445 L116.843,18.445 L116.843,21.737 L122.488,21.737" id="Fill-20" fill="#FFFFFF" sketch:type="MSShapeGroup"></path>
            <path d="M129.737,17.703 L130.83,17.507 L131.433,17.045 L131.643,16.597 L131.769,15.91 L131.685,15.392 L131.32,14.706 L130.718,14.342 L129.808,14.229 L128.477,14.188 L127.104,14.188 L127.104,17.703 L129.737,17.703 L129.737,17.703 Z M127.104,22.914 L125.802,22.914 L125.802,13.024 L129.01,13.024 L130.887,13.108 L131.755,13.375 L132.497,13.963 L132.917,14.649 L133.128,15.798 L132.987,16.778 L132.651,17.437 L132.203,17.886 L131.755,18.096 L131.307,18.235 L132.021,18.474 L132.469,18.964 L132.735,19.58 L132.959,20.883 L133.226,22.031 L133.478,22.605 L133.744,22.914 L132.105,22.914 L131.965,22.605 L131.713,21.863 L131.545,20.799 L131.391,19.973 L131.194,19.44 L130.76,19.076 L130.27,18.894 L128.701,18.81 L127.104,18.81 L127.104,22.914 L127.104,22.914 Z" id="Fill-21" fill="#FFFFFF" sketch:type="MSShapeGroup"></path>
            <path d="M143.922,21.737 L143.922,22.914 L136.96,22.914 L136.96,13.024 L143.754,13.024 L143.754,14.258 L138.276,14.258 L138.276,17.269 L143.445,17.269 L143.445,18.445 L138.276,18.445 L138.276,21.737 L143.922,21.737" id="Fill-22" fill="#FFFFFF" sketch:type="MSShapeGroup"></path>
            <path d="M148.552,21.724 L150.205,21.724 L151.563,21.611 L152.208,21.401 L152.782,21.037 L153.412,20.196 L153.734,19.216 L153.902,17.802 L153.679,16.303 L153.259,15.378 L152.685,14.748 L152.067,14.439 L151.438,14.271 L149.477,14.173 L148.552,14.173 L148.552,21.724 L148.552,21.724 Z M150.261,13.011 L152.138,13.165 L153.006,13.473 L153.665,13.879 L154.421,14.678 L154.995,15.91 L155.191,16.793 L155.262,17.871 L155.121,19.314 L154.841,20.337 L154.309,21.317 L153.902,21.808 L153.16,22.326 L152.46,22.662 L151.661,22.83 L149.378,22.914 L147.235,22.914 L147.235,13.024 L150.261,13.011 L150.261,13.011 Z" id="Fill-23" fill="#FFFFFF" sketch:type="MSShapeGroup"></path>
            <path d="M166.205,21.751 L167.522,21.751 L169.049,21.695 L170.029,21.443 L170.52,20.981 L170.716,20.547 L170.828,20.001 L170.772,19.608 L170.576,19.062 L170.071,18.613 L169.512,18.39 L168.236,18.277 L167.271,18.292 L166.205,18.292 L166.205,21.751 L166.205,21.751 Z M166.205,17.129 L168.769,17.129 L169.581,16.989 L169.932,16.82 L170.254,16.555 L170.408,16.204 L170.52,15.672 L170.338,14.916 L170.044,14.523 L169.497,14.258 L167.438,14.159 L166.205,14.159 L166.205,17.129 L166.205,17.129 Z M168.909,13.024 L169.848,13.108 L170.744,13.445 L171.36,13.963 L171.683,14.565 L171.822,15.476 L171.696,16.358 L171.458,16.862 L171.178,17.157 L170.66,17.549 L170.296,17.661 L171.136,17.997 L171.809,18.712 L172.061,19.314 L172.159,20.085 L172.047,20.869 L171.879,21.388 L171.57,21.892 L171.066,22.368 L170.113,22.746 L169.077,22.9 L167.564,22.914 L164.875,22.914 L164.875,13.024 L168.909,13.024 L168.909,13.024 Z" id="Fill-24" fill="#FFFFFF" sketch:type="MSShapeGroup"></path>
            <path d="M179.759,18.922 L179.759,22.914 L178.471,22.914 L178.471,18.922 L174.801,13.024 L176.355,13.024 L179.157,17.577 L181.958,13.024 L183.527,13.024 L179.759,18.922" id="Fill-25" fill="#FFFFFF" sketch:type="MSShapeGroup"></path>
        </g>
    </g>
</svg>