<?xml version="1.0" encoding="UTF-8" standalone="no"?>
<svg width="200px" height="50px" viewBox="0 0 200 50" version="1.1" xmlns="http://www.w3.org/2000/svg" xmlns:xlink="http://www.w3.org/1999/xlink" xmlns:sketch="http://www.bohemiancoding.com/sketch/ns">
    <!-- Generator: Sketch 3.2.2 (9983) - http://www.bohemiancoding.com/sketch -->
    <title>Vevo_logo</title>
    <desc>Created with Sketch.</desc>
    <defs></defs>
    <g id="Page-1" stroke="none" stroke-width="1" fill="none" fill-rule="evenodd" sketch:type="MSPage">
        <g id="Vevo_logo" sketch:type="MSLayerGroup" transform="translate(0.000000, -1.000000)" fill="#FF0031">
            <g id="layer1" transform="translate(0.499996, 0.738460)" sketch:type="MSShapeGroup">
                <g id="g3012" transform="translate(0.000004, 0.624473)">
                    <path d="M0,1.22892679 L9.69267215,39.5427181 C10.9328093,44.4472552 13.1918849,48.2171682 18.3083803,48.2171682 C22.419549,48.2171682 25.2879708,46.4203373 28.6472279,41.6574812 L55.9237751,1.22892679 L46.0548736,1.22892679 C38.0351082,1.22892679 35.8443546,4.7339366 33.7252749,7.93873443 L22.1985003,25.2223682 L16.1805611,1.22892679 L0,1.22892679 Z" id="path2998"></path>
                    <path d="M77.3520844,0.137068076 C58.7984034,0.137068076 48.2479628,15.6278039 48.2479628,27.9161982 C48.2479628,41.1014015 57.7828861,48.7505458 71.1725986,48.7505458 C84.1162148,48.7505458 93.3400959,40.0673928 96.6558384,33.0334064 L78.9512119,33.0334064 C77.9498803,33.9897102 75.667313,35.5920105 72.0064294,35.5920105 C67.3823666,35.5920105 63.9651023,32.2185531 63.9651023,28.6472279 L94.3028365,28.6472279 C97.7260733,28.6472279 99.7855595,28.3447607 99.7855595,20.9599933 C99.7855595,9.11621865 91.6155053,0.137068076 77.3520844,0.137068076 L77.3520844,0.137068076 Z M76.06136,13.2956034 C80.9305334,13.2956034 83.7029052,17.0973089 83.7029052,18.4128116 C83.7029052,18.8782655 83.2994499,19.1438413 82.9033415,19.1438413 L66.1581915,19.1438413 C67.1687158,17.2801906 70.6008639,13.2956034 76.06136,13.2956034 L76.06136,13.2956034 Z" id="path3000"></path>
                    <path d="M176.646483,0.137068076 C158.645318,0.137068076 147.668007,14.8795182 147.668007,28.0189993 C147.668007,39.1317296 155.077476,48.7505458 170.329929,48.7505458 C186.293137,48.7505458 199.000002,35.7952623 199.000002,20.6059008 C199.000002,8.77016014 190.278137,0.137068076 176.646483,0.137068076 L176.646483,0.137068076 Z M175.150157,14.5177937 C181.245724,14.5177937 182.757435,19.4865554 182.757435,22.0679603 C182.757435,28.0156475 177.708183,34.3812425 171.529275,34.3812425 C166.51186,34.3812425 163.853463,30.8326084 163.853463,26.8196536 C163.853463,20.6523395 169.137393,14.5177937 175.150157,14.5177937 L175.150157,14.5177937 Z" id="path3004"></path>
                    <path d="M100.01026,1.22892679 L109.702932,39.5427181 C110.943069,44.4472552 113.202145,48.2171682 118.31864,48.2171682 C122.429809,48.2171682 125.298231,46.4203373 128.657488,41.6574812 L155.934035,1.22892679 L146.065133,1.22892679 C138.045368,1.22892679 135.854614,4.7339366 133.735535,7.93873443 L122.20876,25.2223682 L116.190821,1.22892679 L100.01026,1.22892679 Z" id="path3008"></path>
                </g>
            </g>
        </g>
    </g>
</svg>